<svg width="21" height="21" viewBox="0 0 21 21" fill="none" xmlns="http://www.w3.org/2000/svg">
<path d="M19.6721 18.0678L13.3469 11.7426C14.6324 9.97923 15.2012 7.66982 14.4618 5.21253C13.6882 2.6756 11.538 0.684741 8.94422 0.161428C3.65421 -0.907949 -0.907708 3.66535 0.161669 8.94398C0.684982 11.5492 2.67584 13.6993 5.21277 14.4615C7.67007 15.201 9.97947 14.6322 11.7428 13.3466L18.0681 19.6719C18.5117 20.1156 19.2284 20.1156 19.6721 19.6719C20.1158 19.2282 20.1158 18.5115 19.6721 18.0678ZM2.27767 7.39679C2.27767 4.56408 4.56432 2.27743 7.39703 2.27743C10.2297 2.27743 12.5164 4.56408 12.5164 7.39679C12.5164 10.2295 10.2297 12.5162 7.39703 12.5162C4.56432 12.5162 2.27767 10.2295 2.27767 7.39679Z" fill="#3C3A36"/>
</svg>
